<mxfile host="app.diagrams.net" agent="Mozilla/5.0 (Windows NT 10.0; Win64; x64) AppleWebKit/537.36 (KHTML, like Gecko) Chrome/136.0.0.0 Safari/537.36" version="27.0.9">
  <diagram name="Page-1" id="aGwjThuRWJurZ9lQX3LW">
    <mxGraphModel dx="1678" dy="884" grid="1" gridSize="10" guides="1" tooltips="1" connect="1" arrows="1" fold="1" page="1" pageScale="1" pageWidth="4681" pageHeight="3300" math="0" shadow="0">
      <root>
        <mxCell id="0" />
        <mxCell id="1" parent="0" />
        <mxCell id="OA-u7yHY9PG8TLwRx-jP-3" value="" style="ellipse;fillColor=strokeColor;html=1;" parent="1" vertex="1">
          <mxGeometry x="10" y="320" width="30" height="30" as="geometry" />
        </mxCell>
        <mxCell id="OA-u7yHY9PG8TLwRx-jP-5" value="USUÁRIO ENVIA REQUISIÇÃO" style="rounded=1;whiteSpace=wrap;html=1;" parent="1" vertex="1">
          <mxGeometry x="100" y="305" width="120" height="60" as="geometry" />
        </mxCell>
        <mxCell id="OA-u7yHY9PG8TLwRx-jP-6" value="" style="endArrow=classic;html=1;rounded=0;exitX=1;exitY=0.5;exitDx=0;exitDy=0;entryX=0;entryY=0.5;entryDx=0;entryDy=0;" parent="1" source="OA-u7yHY9PG8TLwRx-jP-3" target="OA-u7yHY9PG8TLwRx-jP-5" edge="1">
          <mxGeometry width="50" height="50" relative="1" as="geometry">
            <mxPoint x="560" y="360" as="sourcePoint" />
            <mxPoint x="610" y="310" as="targetPoint" />
          </mxGeometry>
        </mxCell>
        <mxCell id="OA-u7yHY9PG8TLwRx-jP-8" value="VERIFICAÇÃO DE ROTA" style="rounded=1;whiteSpace=wrap;html=1;" parent="1" vertex="1">
          <mxGeometry x="260" y="305" width="120" height="60" as="geometry" />
        </mxCell>
        <mxCell id="OA-u7yHY9PG8TLwRx-jP-9" value="" style="endArrow=classic;html=1;rounded=0;exitX=1;exitY=0.5;exitDx=0;exitDy=0;entryX=0;entryY=0.5;entryDx=0;entryDy=0;" parent="1" source="OA-u7yHY9PG8TLwRx-jP-5" target="OA-u7yHY9PG8TLwRx-jP-8" edge="1">
          <mxGeometry width="50" height="50" relative="1" as="geometry">
            <mxPoint x="80" y="350" as="sourcePoint" />
            <mxPoint x="140" y="350" as="targetPoint" />
          </mxGeometry>
        </mxCell>
        <mxCell id="OA-u7yHY9PG8TLwRx-jP-12" value="AuthController" style="rounded=1;whiteSpace=wrap;html=1;" parent="1" vertex="1">
          <mxGeometry x="400" y="165" width="120" height="60" as="geometry" />
        </mxCell>
        <mxCell id="OA-u7yHY9PG8TLwRx-jP-13" value="LOGIN / LOGOUT" style="rhombus;whiteSpace=wrap;html=1;" parent="1" vertex="1">
          <mxGeometry x="420" y="295" width="80" height="80" as="geometry" />
        </mxCell>
        <mxCell id="OA-u7yHY9PG8TLwRx-jP-14" value="" style="endArrow=classic;html=1;rounded=0;exitX=1;exitY=0.5;exitDx=0;exitDy=0;entryX=0;entryY=0.5;entryDx=0;entryDy=0;" parent="1" source="OA-u7yHY9PG8TLwRx-jP-8" target="OA-u7yHY9PG8TLwRx-jP-13" edge="1">
          <mxGeometry width="50" height="50" relative="1" as="geometry">
            <mxPoint x="300" y="340" as="sourcePoint" />
            <mxPoint x="370" y="340" as="targetPoint" />
          </mxGeometry>
        </mxCell>
        <mxCell id="OA-u7yHY9PG8TLwRx-jP-18" value="SIM" style="text;html=1;align=center;verticalAlign=middle;resizable=0;points=[];autosize=1;strokeColor=none;fillColor=none;" parent="1" vertex="1">
          <mxGeometry x="420" y="250" width="40" height="30" as="geometry" />
        </mxCell>
        <mxCell id="OA-u7yHY9PG8TLwRx-jP-19" value="JWTMiddleware" style="rounded=1;whiteSpace=wrap;html=1;" parent="1" vertex="1">
          <mxGeometry x="400" y="435" width="120" height="60" as="geometry" />
        </mxCell>
        <mxCell id="OA-u7yHY9PG8TLwRx-jP-21" value="NÃO" style="text;html=1;align=center;verticalAlign=middle;resizable=0;points=[];autosize=1;strokeColor=none;fillColor=none;" parent="1" vertex="1">
          <mxGeometry x="410" y="380" width="50" height="30" as="geometry" />
        </mxCell>
        <mxCell id="OA-u7yHY9PG8TLwRx-jP-22" value="LOGIN" style="ellipse;whiteSpace=wrap;html=1;" parent="1" vertex="1">
          <mxGeometry x="590" y="120" width="80" height="50" as="geometry" />
        </mxCell>
        <mxCell id="OA-u7yHY9PG8TLwRx-jP-23" value="LOGOUT" style="ellipse;whiteSpace=wrap;html=1;" parent="1" vertex="1">
          <mxGeometry x="590" y="220" width="80" height="50" as="geometry" />
        </mxCell>
        <mxCell id="OA-u7yHY9PG8TLwRx-jP-24" value="" style="edgeStyle=entityRelationEdgeStyle;fontSize=12;html=1;endArrow=blockThin;endFill=1;startArrow=none;rounded=0;startFill=0;exitX=1;exitY=0.5;exitDx=0;exitDy=0;entryX=0;entryY=0.5;entryDx=0;entryDy=0;" parent="1" source="OA-u7yHY9PG8TLwRx-jP-12" target="OA-u7yHY9PG8TLwRx-jP-22" edge="1">
          <mxGeometry width="60" height="60" relative="1" as="geometry">
            <mxPoint x="440" y="383" as="sourcePoint" />
            <mxPoint x="500" y="323" as="targetPoint" />
          </mxGeometry>
        </mxCell>
        <mxCell id="OA-u7yHY9PG8TLwRx-jP-25" value="" style="edgeStyle=entityRelationEdgeStyle;fontSize=12;html=1;endArrow=blockThin;endFill=1;startArrow=none;rounded=0;startFill=0;exitX=1;exitY=0.5;exitDx=0;exitDy=0;entryX=0;entryY=0.5;entryDx=0;entryDy=0;" parent="1" source="OA-u7yHY9PG8TLwRx-jP-12" target="OA-u7yHY9PG8TLwRx-jP-23" edge="1">
          <mxGeometry width="60" height="60" relative="1" as="geometry">
            <mxPoint x="650" y="270" as="sourcePoint" />
            <mxPoint x="740" y="213" as="targetPoint" />
          </mxGeometry>
        </mxCell>
        <mxCell id="OA-u7yHY9PG8TLwRx-jP-26" value="Verifica JWT Token" style="rounded=1;whiteSpace=wrap;html=1;" parent="1" vertex="1">
          <mxGeometry x="400" y="560" width="120" height="60" as="geometry" />
        </mxCell>
        <mxCell id="OA-u7yHY9PG8TLwRx-jP-27" value="" style="endArrow=classic;html=1;rounded=0;exitX=0.5;exitY=1;exitDx=0;exitDy=0;entryX=0.5;entryY=0;entryDx=0;entryDy=0;" parent="1" source="OA-u7yHY9PG8TLwRx-jP-19" target="OA-u7yHY9PG8TLwRx-jP-26" edge="1">
          <mxGeometry width="50" height="50" relative="1" as="geometry">
            <mxPoint x="350" y="440" as="sourcePoint" />
            <mxPoint x="410" y="440" as="targetPoint" />
          </mxGeometry>
        </mxCell>
        <mxCell id="OA-u7yHY9PG8TLwRx-jP-28" value="VÁLIDO?" style="rhombus;whiteSpace=wrap;html=1;" parent="1" vertex="1">
          <mxGeometry x="580" y="550" width="80" height="80" as="geometry" />
        </mxCell>
        <mxCell id="OA-u7yHY9PG8TLwRx-jP-29" value="" style="endArrow=classic;html=1;rounded=0;exitX=1;exitY=0.5;exitDx=0;exitDy=0;entryX=0;entryY=0.5;entryDx=0;entryDy=0;" parent="1" source="OA-u7yHY9PG8TLwRx-jP-26" target="OA-u7yHY9PG8TLwRx-jP-28" edge="1">
          <mxGeometry width="50" height="50" relative="1" as="geometry">
            <mxPoint x="660" y="510" as="sourcePoint" />
            <mxPoint x="730" y="510" as="targetPoint" />
          </mxGeometry>
        </mxCell>
        <mxCell id="OA-u7yHY9PG8TLwRx-jP-31" value="NÃO" style="text;html=1;align=center;verticalAlign=middle;resizable=0;points=[];autosize=1;strokeColor=none;fillColor=none;" parent="1" vertex="1">
          <mxGeometry x="570" y="640" width="50" height="30" as="geometry" />
        </mxCell>
        <mxCell id="OA-u7yHY9PG8TLwRx-jP-32" value="VERIFICA CREDENCIAIS" style="ellipse;whiteSpace=wrap;html=1;" parent="1" vertex="1">
          <mxGeometry x="710" y="120" width="80" height="50" as="geometry" />
        </mxCell>
        <mxCell id="OA-u7yHY9PG8TLwRx-jP-33" value="" style="endArrow=classic;html=1;rounded=0;exitX=1;exitY=0.5;exitDx=0;exitDy=0;entryX=0;entryY=0.5;entryDx=0;entryDy=0;" parent="1" source="OA-u7yHY9PG8TLwRx-jP-22" target="OA-u7yHY9PG8TLwRx-jP-32" edge="1">
          <mxGeometry width="50" height="50" relative="1" as="geometry">
            <mxPoint x="760" y="403" as="sourcePoint" />
            <mxPoint x="830" y="403" as="targetPoint" />
          </mxGeometry>
        </mxCell>
        <mxCell id="OA-u7yHY9PG8TLwRx-jP-34" value="GERA TOKEN" style="ellipse;whiteSpace=wrap;html=1;" parent="1" vertex="1">
          <mxGeometry x="825" y="120" width="80" height="50" as="geometry" />
        </mxCell>
        <mxCell id="OA-u7yHY9PG8TLwRx-jP-35" value="" style="endArrow=classic;html=1;rounded=0;exitX=1;exitY=0.5;exitDx=0;exitDy=0;entryX=0;entryY=0.5;entryDx=0;entryDy=0;" parent="1" source="OA-u7yHY9PG8TLwRx-jP-32" target="OA-u7yHY9PG8TLwRx-jP-34" edge="1">
          <mxGeometry width="50" height="50" relative="1" as="geometry">
            <mxPoint x="820" y="153" as="sourcePoint" />
            <mxPoint x="890" y="153" as="targetPoint" />
          </mxGeometry>
        </mxCell>
        <mxCell id="OA-u7yHY9PG8TLwRx-jP-36" value="INVALIDA TOKEN" style="ellipse;whiteSpace=wrap;html=1;" parent="1" vertex="1">
          <mxGeometry x="710" y="220" width="80" height="50" as="geometry" />
        </mxCell>
        <mxCell id="OA-u7yHY9PG8TLwRx-jP-37" value="" style="endArrow=classic;html=1;rounded=0;exitX=1;exitY=0.5;exitDx=0;exitDy=0;entryX=0;entryY=0.5;entryDx=0;entryDy=0;" parent="1" source="OA-u7yHY9PG8TLwRx-jP-23" target="OA-u7yHY9PG8TLwRx-jP-36" edge="1">
          <mxGeometry width="50" height="50" relative="1" as="geometry">
            <mxPoint x="770" y="256" as="sourcePoint" />
            <mxPoint x="830" y="503" as="targetPoint" />
          </mxGeometry>
        </mxCell>
        <mxCell id="OA-u7yHY9PG8TLwRx-jP-38" value="RETORNA" style="ellipse;whiteSpace=wrap;html=1;" parent="1" vertex="1">
          <mxGeometry x="825" y="220" width="80" height="50" as="geometry" />
        </mxCell>
        <mxCell id="OA-u7yHY9PG8TLwRx-jP-39" value="" style="endArrow=classic;html=1;rounded=0;exitX=1;exitY=0.5;exitDx=0;exitDy=0;entryX=0;entryY=0.5;entryDx=0;entryDy=0;" parent="1" source="OA-u7yHY9PG8TLwRx-jP-36" target="OA-u7yHY9PG8TLwRx-jP-38" edge="1">
          <mxGeometry width="50" height="50" relative="1" as="geometry">
            <mxPoint x="820" y="253" as="sourcePoint" />
            <mxPoint x="890" y="253" as="targetPoint" />
          </mxGeometry>
        </mxCell>
        <mxCell id="OA-u7yHY9PG8TLwRx-jP-40" value="RETORNA" style="ellipse;whiteSpace=wrap;html=1;" parent="1" vertex="1">
          <mxGeometry x="580" y="685" width="80" height="50" as="geometry" />
        </mxCell>
        <mxCell id="OA-u7yHY9PG8TLwRx-jP-41" value="MedicoController" style="rounded=1;whiteSpace=wrap;html=1;" parent="1" vertex="1">
          <mxGeometry x="600" y="375" width="120" height="60" as="geometry" />
        </mxCell>
        <mxCell id="OA-u7yHY9PG8TLwRx-jP-42" value="PacienteController" style="rounded=1;whiteSpace=wrap;html=1;" parent="1" vertex="1">
          <mxGeometry x="765" y="491" width="120" height="60" as="geometry" />
        </mxCell>
        <mxCell id="OA-u7yHY9PG8TLwRx-jP-43" value="ConsultaController" style="rounded=1;whiteSpace=wrap;html=1;" parent="1" vertex="1">
          <mxGeometry x="611" y="770" width="120" height="60" as="geometry" />
        </mxCell>
        <mxCell id="OA-u7yHY9PG8TLwRx-jP-44" value="" style="rounded=1;whiteSpace=wrap;html=1;" parent="1" vertex="1">
          <mxGeometry x="710" y="580" width="70" height="20" as="geometry" />
        </mxCell>
        <mxCell id="OA-u7yHY9PG8TLwRx-jP-45" value="" style="endArrow=classic;html=1;rounded=0;exitX=1;exitY=0.5;exitDx=0;exitDy=0;entryX=0;entryY=0.5;entryDx=0;entryDy=0;" parent="1" source="OA-u7yHY9PG8TLwRx-jP-28" target="OA-u7yHY9PG8TLwRx-jP-44" edge="1">
          <mxGeometry width="50" height="50" relative="1" as="geometry">
            <mxPoint x="600" y="625.0000000000002" as="sourcePoint" />
            <mxPoint x="690" y="655" as="targetPoint" />
          </mxGeometry>
        </mxCell>
        <mxCell id="OA-u7yHY9PG8TLwRx-jP-46" value="SIM" style="text;html=1;align=center;verticalAlign=middle;resizable=0;points=[];autosize=1;strokeColor=none;fillColor=none;" parent="1" vertex="1">
          <mxGeometry x="660" y="560" width="40" height="30" as="geometry" />
        </mxCell>
        <mxCell id="OA-u7yHY9PG8TLwRx-jP-47" value="" style="edgeStyle=elbowEdgeStyle;elbow=vertical;endArrow=classic;html=1;curved=0;rounded=0;endSize=8;startSize=8;exitX=0.5;exitY=0;exitDx=0;exitDy=0;entryX=0.5;entryY=1;entryDx=0;entryDy=0;" parent="1" source="OA-u7yHY9PG8TLwRx-jP-44" target="OA-u7yHY9PG8TLwRx-jP-41" edge="1">
          <mxGeometry width="50" height="50" relative="1" as="geometry">
            <mxPoint x="694.9999999999995" y="629.9999999999998" as="sourcePoint" />
            <mxPoint x="690" y="540" as="targetPoint" />
          </mxGeometry>
        </mxCell>
        <mxCell id="OA-u7yHY9PG8TLwRx-jP-48" value="" style="edgeStyle=elbowEdgeStyle;elbow=vertical;endArrow=classic;html=1;curved=0;rounded=0;endSize=8;startSize=8;exitX=0.5;exitY=1;exitDx=0;exitDy=0;entryX=0.5;entryY=0;entryDx=0;entryDy=0;" parent="1" source="OA-u7yHY9PG8TLwRx-jP-44" target="OA-u7yHY9PG8TLwRx-jP-43" edge="1">
          <mxGeometry width="50" height="50" relative="1" as="geometry">
            <mxPoint x="760" y="575" as="sourcePoint" />
            <mxPoint x="810" y="525" as="targetPoint" />
          </mxGeometry>
        </mxCell>
        <mxCell id="OA-u7yHY9PG8TLwRx-jP-52" value="" style="endArrow=classic;html=1;rounded=0;exitX=0.5;exitY=1;exitDx=0;exitDy=0;entryX=0.5;entryY=0;entryDx=0;entryDy=0;" parent="1" source="OA-u7yHY9PG8TLwRx-jP-28" target="OA-u7yHY9PG8TLwRx-jP-40" edge="1">
          <mxGeometry width="50" height="50" relative="1" as="geometry">
            <mxPoint x="950" y="575" as="sourcePoint" />
            <mxPoint x="1000" y="525" as="targetPoint" />
          </mxGeometry>
        </mxCell>
        <mxCell id="OA-u7yHY9PG8TLwRx-jP-58" value="FormRequest" style="rounded=1;whiteSpace=wrap;html=1;" parent="1" vertex="1">
          <mxGeometry x="745" y="375" width="120" height="60" as="geometry" />
        </mxCell>
        <mxCell id="OA-u7yHY9PG8TLwRx-jP-59" value="UserService" style="rounded=1;whiteSpace=wrap;html=1;" parent="1" vertex="1">
          <mxGeometry x="885" y="375" width="120" height="60" as="geometry" />
        </mxCell>
        <mxCell id="OA-u7yHY9PG8TLwRx-jP-60" value="UserRepository" style="rounded=1;whiteSpace=wrap;html=1;" parent="1" vertex="1">
          <mxGeometry x="1025" y="375" width="120" height="60" as="geometry" />
        </mxCell>
        <mxCell id="OA-u7yHY9PG8TLwRx-jP-61" value="" style="endArrow=classic;html=1;rounded=0;exitX=1;exitY=0.5;exitDx=0;exitDy=0;entryX=0;entryY=0.5;entryDx=0;entryDy=0;" parent="1" source="OA-u7yHY9PG8TLwRx-jP-41" target="OA-u7yHY9PG8TLwRx-jP-58" edge="1">
          <mxGeometry width="50" height="50" relative="1" as="geometry">
            <mxPoint x="355" y="415" as="sourcePoint" />
            <mxPoint x="395" y="415" as="targetPoint" />
          </mxGeometry>
        </mxCell>
        <mxCell id="OA-u7yHY9PG8TLwRx-jP-62" value="" style="endArrow=classic;html=1;rounded=0;exitX=1;exitY=0.5;exitDx=0;exitDy=0;entryX=0;entryY=0.5;entryDx=0;entryDy=0;" parent="1" source="OA-u7yHY9PG8TLwRx-jP-58" target="OA-u7yHY9PG8TLwRx-jP-59" edge="1">
          <mxGeometry width="50" height="50" relative="1" as="geometry">
            <mxPoint x="1095" y="335" as="sourcePoint" />
            <mxPoint x="1130" y="335" as="targetPoint" />
          </mxGeometry>
        </mxCell>
        <mxCell id="OA-u7yHY9PG8TLwRx-jP-63" value="" style="endArrow=classic;html=1;rounded=0;exitX=1;exitY=0.5;exitDx=0;exitDy=0;entryX=0;entryY=0.5;entryDx=0;entryDy=0;" parent="1" source="OA-u7yHY9PG8TLwRx-jP-59" target="OA-u7yHY9PG8TLwRx-jP-60" edge="1">
          <mxGeometry width="50" height="50" relative="1" as="geometry">
            <mxPoint x="1105" y="325" as="sourcePoint" />
            <mxPoint x="1125" y="325" as="targetPoint" />
          </mxGeometry>
        </mxCell>
        <mxCell id="OA-u7yHY9PG8TLwRx-jP-64" value="FormRequest" style="rounded=1;whiteSpace=wrap;html=1;" parent="1" vertex="1">
          <mxGeometry x="910" y="491" width="120" height="60" as="geometry" />
        </mxCell>
        <mxCell id="OA-u7yHY9PG8TLwRx-jP-65" value="UserService" style="rounded=1;whiteSpace=wrap;html=1;" parent="1" vertex="1">
          <mxGeometry x="1050" y="491" width="120" height="60" as="geometry" />
        </mxCell>
        <mxCell id="OA-u7yHY9PG8TLwRx-jP-66" value="UserRepository" style="rounded=1;whiteSpace=wrap;html=1;" parent="1" vertex="1">
          <mxGeometry x="1190" y="491" width="120" height="60" as="geometry" />
        </mxCell>
        <mxCell id="OA-u7yHY9PG8TLwRx-jP-67" value="" style="endArrow=classic;html=1;rounded=0;exitX=1;exitY=0.5;exitDx=0;exitDy=0;entryX=0;entryY=0.5;entryDx=0;entryDy=0;" parent="1" target="OA-u7yHY9PG8TLwRx-jP-64" edge="1">
          <mxGeometry width="50" height="50" relative="1" as="geometry">
            <mxPoint x="885" y="521" as="sourcePoint" />
            <mxPoint x="560" y="531" as="targetPoint" />
          </mxGeometry>
        </mxCell>
        <mxCell id="OA-u7yHY9PG8TLwRx-jP-68" value="" style="endArrow=classic;html=1;rounded=0;exitX=1;exitY=0.5;exitDx=0;exitDy=0;entryX=0;entryY=0.5;entryDx=0;entryDy=0;" parent="1" source="OA-u7yHY9PG8TLwRx-jP-64" target="OA-u7yHY9PG8TLwRx-jP-65" edge="1">
          <mxGeometry width="50" height="50" relative="1" as="geometry">
            <mxPoint x="1260" y="451" as="sourcePoint" />
            <mxPoint x="1295" y="451" as="targetPoint" />
          </mxGeometry>
        </mxCell>
        <mxCell id="OA-u7yHY9PG8TLwRx-jP-69" value="" style="endArrow=classic;html=1;rounded=0;exitX=1;exitY=0.5;exitDx=0;exitDy=0;entryX=0;entryY=0.5;entryDx=0;entryDy=0;" parent="1" source="OA-u7yHY9PG8TLwRx-jP-65" target="OA-u7yHY9PG8TLwRx-jP-66" edge="1">
          <mxGeometry width="50" height="50" relative="1" as="geometry">
            <mxPoint x="1270" y="441" as="sourcePoint" />
            <mxPoint x="1290" y="441" as="targetPoint" />
          </mxGeometry>
        </mxCell>
        <mxCell id="OA-u7yHY9PG8TLwRx-jP-70" value="FormRequest" style="rounded=1;whiteSpace=wrap;html=1;" parent="1" vertex="1">
          <mxGeometry x="756" y="770" width="120" height="60" as="geometry" />
        </mxCell>
        <mxCell id="OA-u7yHY9PG8TLwRx-jP-71" value="ConsultaService" style="rounded=1;whiteSpace=wrap;html=1;" parent="1" vertex="1">
          <mxGeometry x="896" y="770" width="120" height="60" as="geometry" />
        </mxCell>
        <mxCell id="OA-u7yHY9PG8TLwRx-jP-72" value="ConsultaRepository" style="rounded=1;whiteSpace=wrap;html=1;" parent="1" vertex="1">
          <mxGeometry x="1036" y="770" width="120" height="60" as="geometry" />
        </mxCell>
        <mxCell id="OA-u7yHY9PG8TLwRx-jP-73" value="" style="endArrow=classic;html=1;rounded=0;exitX=1;exitY=0.5;exitDx=0;exitDy=0;entryX=0;entryY=0.5;entryDx=0;entryDy=0;" parent="1" target="OA-u7yHY9PG8TLwRx-jP-70" edge="1">
          <mxGeometry width="50" height="50" relative="1" as="geometry">
            <mxPoint x="731" y="800" as="sourcePoint" />
            <mxPoint x="406" y="810" as="targetPoint" />
          </mxGeometry>
        </mxCell>
        <mxCell id="OA-u7yHY9PG8TLwRx-jP-74" value="" style="endArrow=classic;html=1;rounded=0;exitX=1;exitY=0.5;exitDx=0;exitDy=0;entryX=0;entryY=0.5;entryDx=0;entryDy=0;" parent="1" source="OA-u7yHY9PG8TLwRx-jP-70" target="OA-u7yHY9PG8TLwRx-jP-71" edge="1">
          <mxGeometry width="50" height="50" relative="1" as="geometry">
            <mxPoint x="1106" y="730" as="sourcePoint" />
            <mxPoint x="1141" y="730" as="targetPoint" />
          </mxGeometry>
        </mxCell>
        <mxCell id="OA-u7yHY9PG8TLwRx-jP-75" value="" style="endArrow=classic;html=1;rounded=0;exitX=1;exitY=0.5;exitDx=0;exitDy=0;entryX=0;entryY=0.5;entryDx=0;entryDy=0;" parent="1" source="OA-u7yHY9PG8TLwRx-jP-71" target="OA-u7yHY9PG8TLwRx-jP-72" edge="1">
          <mxGeometry width="50" height="50" relative="1" as="geometry">
            <mxPoint x="1116" y="720" as="sourcePoint" />
            <mxPoint x="1136" y="720" as="targetPoint" />
          </mxGeometry>
        </mxCell>
        <mxCell id="OA-u7yHY9PG8TLwRx-jP-76" value="" style="ellipse;html=1;shape=endState;fillColor=strokeColor;" parent="1" vertex="1">
          <mxGeometry x="1480" y="540" width="30" height="30" as="geometry" />
        </mxCell>
        <mxCell id="OA-u7yHY9PG8TLwRx-jP-77" value="" style="endArrow=classic;html=1;rounded=0;exitX=1;exitY=0.5;exitDx=0;exitDy=0;entryX=0;entryY=0.5;entryDx=0;entryDy=0;" parent="1" source="OA-u7yHY9PG8TLwRx-jP-60" target="OA-u7yHY9PG8TLwRx-jP-76" edge="1">
          <mxGeometry width="50" height="50" relative="1" as="geometry">
            <mxPoint x="600" y="575" as="sourcePoint" />
            <mxPoint x="650" y="525" as="targetPoint" />
          </mxGeometry>
        </mxCell>
        <mxCell id="OA-u7yHY9PG8TLwRx-jP-78" value="" style="endArrow=classic;html=1;rounded=0;exitX=1;exitY=0.5;exitDx=0;exitDy=0;entryX=0;entryY=0.5;entryDx=0;entryDy=0;" parent="1" source="OA-u7yHY9PG8TLwRx-jP-66" target="OA-u7yHY9PG8TLwRx-jP-76" edge="1">
          <mxGeometry width="50" height="50" relative="1" as="geometry">
            <mxPoint x="1420" y="685" as="sourcePoint" />
            <mxPoint x="1550" y="795" as="targetPoint" />
          </mxGeometry>
        </mxCell>
        <mxCell id="OA-u7yHY9PG8TLwRx-jP-79" value="" style="endArrow=classic;html=1;rounded=0;exitX=1;exitY=0.5;exitDx=0;exitDy=0;entryX=0;entryY=0.5;entryDx=0;entryDy=0;" parent="1" source="OA-u7yHY9PG8TLwRx-jP-72" target="OA-u7yHY9PG8TLwRx-jP-76" edge="1">
          <mxGeometry width="50" height="50" relative="1" as="geometry">
            <mxPoint x="1420" y="595" as="sourcePoint" />
            <mxPoint x="1570" y="700" as="targetPoint" />
          </mxGeometry>
        </mxCell>
        <mxCell id="OA-u7yHY9PG8TLwRx-jP-80" value="" style="ellipse;html=1;shape=endState;fillColor=strokeColor;" parent="1" vertex="1">
          <mxGeometry x="950" y="130" width="30" height="30" as="geometry" />
        </mxCell>
        <mxCell id="OA-u7yHY9PG8TLwRx-jP-81" value="" style="endArrow=classic;html=1;rounded=0;exitX=1;exitY=0.5;exitDx=0;exitDy=0;entryX=0;entryY=0.5;entryDx=0;entryDy=0;" parent="1" source="OA-u7yHY9PG8TLwRx-jP-34" target="OA-u7yHY9PG8TLwRx-jP-80" edge="1">
          <mxGeometry width="50" height="50" relative="1" as="geometry">
            <mxPoint x="927.5" y="150" as="sourcePoint" />
            <mxPoint x="1122.5" y="355" as="targetPoint" />
          </mxGeometry>
        </mxCell>
        <mxCell id="OA-u7yHY9PG8TLwRx-jP-85" value="" style="ellipse;html=1;shape=endState;fillColor=strokeColor;" parent="1" vertex="1">
          <mxGeometry x="950" y="230" width="30" height="30" as="geometry" />
        </mxCell>
        <mxCell id="OA-u7yHY9PG8TLwRx-jP-86" value="" style="endArrow=classic;html=1;rounded=0;exitX=1;exitY=0.5;exitDx=0;exitDy=0;entryX=0;entryY=0.5;entryDx=0;entryDy=0;" parent="1" source="OA-u7yHY9PG8TLwRx-jP-38" target="OA-u7yHY9PG8TLwRx-jP-85" edge="1">
          <mxGeometry width="50" height="50" relative="1" as="geometry">
            <mxPoint x="910" y="245" as="sourcePoint" />
            <mxPoint x="1127.5" y="455" as="targetPoint" />
          </mxGeometry>
        </mxCell>
        <mxCell id="OA-u7yHY9PG8TLwRx-jP-87" value="" style="endArrow=classic;html=1;rounded=0;exitX=0.5;exitY=0;exitDx=0;exitDy=0;entryX=0.5;entryY=1;entryDx=0;entryDy=0;" parent="1" source="OA-u7yHY9PG8TLwRx-jP-13" target="OA-u7yHY9PG8TLwRx-jP-12" edge="1">
          <mxGeometry width="50" height="50" relative="1" as="geometry">
            <mxPoint x="740" y="430" as="sourcePoint" />
            <mxPoint x="510" y="260" as="targetPoint" />
          </mxGeometry>
        </mxCell>
        <mxCell id="OA-u7yHY9PG8TLwRx-jP-89" value="" style="endArrow=classic;html=1;rounded=0;exitX=0.5;exitY=1;exitDx=0;exitDy=0;entryX=0.5;entryY=0;entryDx=0;entryDy=0;" parent="1" source="OA-u7yHY9PG8TLwRx-jP-13" target="OA-u7yHY9PG8TLwRx-jP-19" edge="1">
          <mxGeometry width="50" height="50" relative="1" as="geometry">
            <mxPoint x="530" y="420" as="sourcePoint" />
            <mxPoint x="530" y="350" as="targetPoint" />
          </mxGeometry>
        </mxCell>
        <mxCell id="sy9z72VjQ-YR8tbzBSh7-1" value="AdminController" style="rounded=1;whiteSpace=wrap;html=1;" vertex="1" parent="1">
          <mxGeometry x="765" y="620" width="120" height="60" as="geometry" />
        </mxCell>
        <mxCell id="sy9z72VjQ-YR8tbzBSh7-3" value="FormRequest" style="rounded=1;whiteSpace=wrap;html=1;" vertex="1" parent="1">
          <mxGeometry x="910" y="620" width="120" height="60" as="geometry" />
        </mxCell>
        <mxCell id="sy9z72VjQ-YR8tbzBSh7-4" value="AdminService" style="rounded=1;whiteSpace=wrap;html=1;" vertex="1" parent="1">
          <mxGeometry x="1050" y="620" width="120" height="60" as="geometry" />
        </mxCell>
        <mxCell id="sy9z72VjQ-YR8tbzBSh7-5" value="AdminRepository" style="rounded=1;whiteSpace=wrap;html=1;" vertex="1" parent="1">
          <mxGeometry x="1190" y="620" width="120" height="60" as="geometry" />
        </mxCell>
        <mxCell id="sy9z72VjQ-YR8tbzBSh7-6" value="" style="endArrow=classic;html=1;rounded=0;exitX=1;exitY=0.5;exitDx=0;exitDy=0;entryX=0;entryY=0.5;entryDx=0;entryDy=0;" edge="1" parent="1" target="sy9z72VjQ-YR8tbzBSh7-3">
          <mxGeometry width="50" height="50" relative="1" as="geometry">
            <mxPoint x="885" y="650" as="sourcePoint" />
            <mxPoint x="560" y="660" as="targetPoint" />
          </mxGeometry>
        </mxCell>
        <mxCell id="sy9z72VjQ-YR8tbzBSh7-7" value="" style="endArrow=classic;html=1;rounded=0;exitX=1;exitY=0.5;exitDx=0;exitDy=0;entryX=0;entryY=0.5;entryDx=0;entryDy=0;" edge="1" parent="1" source="sy9z72VjQ-YR8tbzBSh7-3" target="sy9z72VjQ-YR8tbzBSh7-4">
          <mxGeometry width="50" height="50" relative="1" as="geometry">
            <mxPoint x="1260" y="580" as="sourcePoint" />
            <mxPoint x="1295" y="580" as="targetPoint" />
          </mxGeometry>
        </mxCell>
        <mxCell id="sy9z72VjQ-YR8tbzBSh7-8" value="" style="endArrow=classic;html=1;rounded=0;exitX=1;exitY=0.5;exitDx=0;exitDy=0;entryX=0;entryY=0.5;entryDx=0;entryDy=0;" edge="1" parent="1" source="sy9z72VjQ-YR8tbzBSh7-4" target="sy9z72VjQ-YR8tbzBSh7-5">
          <mxGeometry width="50" height="50" relative="1" as="geometry">
            <mxPoint x="1270" y="570" as="sourcePoint" />
            <mxPoint x="1290" y="570" as="targetPoint" />
          </mxGeometry>
        </mxCell>
        <mxCell id="sy9z72VjQ-YR8tbzBSh7-9" value="" style="endArrow=classic;html=1;rounded=0;exitX=1;exitY=0.5;exitDx=0;exitDy=0;entryX=0;entryY=0.5;entryDx=0;entryDy=0;" edge="1" parent="1" source="sy9z72VjQ-YR8tbzBSh7-5" target="OA-u7yHY9PG8TLwRx-jP-76">
          <mxGeometry width="50" height="50" relative="1" as="geometry">
            <mxPoint x="1380" y="540" as="sourcePoint" />
            <mxPoint x="1495" y="605" as="targetPoint" />
          </mxGeometry>
        </mxCell>
        <mxCell id="sy9z72VjQ-YR8tbzBSh7-10" value="" style="edgeStyle=segmentEdgeStyle;endArrow=classic;html=1;curved=0;rounded=0;endSize=8;startSize=8;exitX=1;exitY=0.5;exitDx=0;exitDy=0;entryX=0.5;entryY=1;entryDx=0;entryDy=0;" edge="1" parent="1" source="OA-u7yHY9PG8TLwRx-jP-44" target="OA-u7yHY9PG8TLwRx-jP-42">
          <mxGeometry width="50" height="50" relative="1" as="geometry">
            <mxPoint x="710" y="440" as="sourcePoint" />
            <mxPoint x="760" y="390" as="targetPoint" />
          </mxGeometry>
        </mxCell>
        <mxCell id="sy9z72VjQ-YR8tbzBSh7-11" value="" style="edgeStyle=segmentEdgeStyle;endArrow=classic;html=1;curved=0;rounded=0;endSize=8;startSize=8;exitX=1;exitY=0.5;exitDx=0;exitDy=0;entryX=0.5;entryY=0;entryDx=0;entryDy=0;" edge="1" parent="1" source="OA-u7yHY9PG8TLwRx-jP-44" target="sy9z72VjQ-YR8tbzBSh7-1">
          <mxGeometry width="50" height="50" relative="1" as="geometry">
            <mxPoint x="900" y="550" as="sourcePoint" />
            <mxPoint x="945" y="510" as="targetPoint" />
          </mxGeometry>
        </mxCell>
      </root>
    </mxGraphModel>
  </diagram>
</mxfile>
